# xmcd CD database file
#
# Track frame offsets:
#	150
#	35370
#	77235
#	100912
#	106662
#	127883
#	169804
#	221853
#
# Disc length: 3310 seconds
#
# Revision: 0
# Processed by: cddbd v1.5.1PL0 Copyright (c) Steve Scherf et al.
# Submitted via: CDex 1.60beta1
#
DISCID=630cec08
DTITLE=The Mitchell-Ruff Duo - Breaking The Silence
DYEAR=2000
DGENRE=Jazz
TTITLE0=Autumn Leaves
TTITLE1=Laura
TTITLE2=Passion Flower
TTITLE3=Raincheck
TTITLE4=A Train
TTITLE5=Lullaby
TTITLE6=Firebird
TTITLE7=Lullaby Of Broadway
EXTD=YEAR: 2000
EXTT0=
EXTT1=
EXTT2=
EXTT3=
EXTT4=
EXTT5=
EXTT6=
EXTT7=
PLAYORDER=
